<?xml version="1.0" encoding="UTF-8"?>
<svg xmlns="http://www.w3.org/2000/svg" version="1.1" viewBox="0 0 415 304">
  <!-- Generator: Adobe Illustrator 29.4.0, SVG Export Plug-In . SVG Version: 2.1.0 Build 152)  -->
  <defs>
    <style>
      .st0 {
        fill: #181716;
      }
    </style>
  </defs>
  <path class="st0" d="M363.43,60.89v-30.2c0-8.38-6.8-15.18-15.18-15.18H81.95c-5.37,0-10.34,2.84-13.08,7.46-2.73,4.63-2.81,10.35-.22,15.05l33.52,60.72c2.67,4.84,7.77,7.85,13.29,7.85h175.84l-16.96,30.2h-34.09l16.73,30.92-12.09,21.52-28.51-52.43h-34.17l45.19,83.54-12.41,22.1-57.44-105.65h-34.16l78.05,144.28c2.64,4.85,7.7,7.89,13.23,7.93h.1c5.49,0,10.55-2.96,13.23-7.75l102.47-182.41c2.65-4.7,2.59-10.45-.13-15.1s-7.71-7.51-13.11-7.51H124.43l-16.76-30.36h225.39v15.02h30.36Z"/>
</svg>